<svg width="200" height="200" viewBox="0 0 200 200" fill="none" xmlns="http://www.w3.org/2000/svg">
<path d="M18.75 37.5C18.75 30.5965 24.3464 25 31.25 25H87.5V175H31.25C24.3464 175 18.75 169.404 18.75 162.5V37.5Z" fill="#1B1C1F"/>
<path d="M18.75 37.5C18.75 30.5965 24.3464 25 31.25 25H87.5V175H31.25C24.3464 175 18.75 169.404 18.75 162.5V37.5Z" fill="white" fill-opacity="0.4"/>
<path d="M168.75 172.257C175.492 172.271 181.25 166.798 181.25 159.753V33.9976C181.25 26.9517 175.492 21.4791 168.75 21.4934V172.257Z" fill="#1B1C1F"/>
<path d="M168.75 172.257C175.492 172.271 181.25 166.798 181.25 159.753V33.9976C181.25 26.9517 175.492 21.4791 168.75 21.4934V172.257Z" fill="white" fill-opacity="0.4"/>
<path d="M93.75 25L147.764 15.1793C155.437 13.7842 162.5 19.6789 162.5 27.4777V172.522C162.5 180.321 155.437 186.216 147.764 184.821L93.75 175V25Z" fill="#1B1C1F"/>
<path d="M93.75 25L147.764 15.1793C155.437 13.7842 162.5 19.6789 162.5 27.4777V172.522C162.5 180.321 155.437 186.216 147.764 184.821L93.75 175V25Z" fill="white" fill-opacity="0.02"/>
</svg>
